<svg width="17" height="17" viewBox="0 0 17 17" fill="none" xmlns="http://www.w3.org/2000/svg">
<path d="M16.7092 14.4988C16.7092 14.8783 16.4012 15.1863 16.0217 15.1863C15.6422 15.1863 15.3342 14.8783 15.3342 14.4988L15.3342 2.40801L1.92333 15.8188C1.79408 15.949 1.62083 16.0205 1.4375 16.0205C1.25417 16.0205 1.08092 15.949 0.951667 15.8188C0.8215 15.6896 0.75 15.5163 0.75 15.333C0.75 15.1497 0.8215 14.9764 0.951667 14.8472L14.3625 1.43634L2.27167 1.43634C1.89217 1.43634 1.58417 1.12834 1.58417 0.748842C1.58417 0.369342 1.89217 0.0613422 2.27167 0.0613422L16.0217 0.0613416C16.1014 0.0613416 16.1812 0.0760072 16.2582 0.103507C16.2637 0.105341 16.2683 0.107175 16.2728 0.109008C16.4516 0.182341 16.5882 0.318925 16.6569 0.486676C16.6597 0.494008 16.6633 0.502258 16.6661 0.510508C16.6945 0.585675 16.7092 0.666342 16.7092 0.747925L16.7092 14.4988Z" fill="black"/>
</svg>
